<!DOCTYPE svg PUBLIC "-//W3C//DTD SVG 1.1//EN" "http://www.w3.org/Graphics/SVG/1.1/DTD/svg11.dtd">
<!-- Uploaded to: SVG Repo, www.svgrepo.com, Transformed by: SVG Repo Mixer Tools -->
<svg height="256px" width="256px" version="1.1" id="Layer_1" xmlns="http://www.w3.org/2000/svg" xmlns:xlink="http://www.w3.org/1999/xlink" viewBox="0 0 512 512" xml:space="preserve" fill="#000000">
<g id="SVGRepo_bgCarrier" stroke-width="0"/>
<g id="SVGRepo_tracerCarrier" stroke-linecap="round" stroke-linejoin="round"/>
<g id="SVGRepo_iconCarrier"> <path style="fill:#EAFFFF;" d="M439.242,482.358H72.758c-23.812,0-43.116-19.304-43.116-43.116V72.758 c0-23.812,19.304-43.116,43.116-43.116h366.484c23.812,0,43.116,19.304,43.116,43.116v366.484 C482.358,463.054,463.054,482.358,439.242,482.358z"/> <path style="fill:#A9D5BB;" d="M450.021,105.095L450.021,105.095c0,11.906-9.651,21.558-21.558,21.558H256 c-11.906,0-21.558-9.651-21.558-21.558l0,0c0-3.931,1.069-7.606,2.907-10.779H126.653c-11.906,0-21.558-9.651-21.558-21.558l0,0 c0-11.906,9.651-21.558,21.558-21.558h172.463c11.906,0,21.558,9.651,21.558,21.558l0,0c0,3.931-1.069,7.606-2.907,10.779h110.697 C440.37,83.537,450.021,93.188,450.021,105.095z"/> <path style="fill:#C5EAD4;" d="M320.674,72.758L320.674,72.758c0,11.906-9.651,21.558-21.558,21.558H158.989 c-11.906,0-21.558-9.651-21.558-21.558l0,0c0-11.906,9.651-21.558,21.558-21.558h140.126 C311.022,51.2,320.674,60.851,320.674,72.758z M482.358,169.768h-53.895c-11.906,0-21.558,9.651-21.558,21.558l0,0 c0,11.906,9.651,21.558,21.558,21.558h53.895c11.906,0,21.558-9.651,21.558-21.558l0,0 C503.916,179.42,494.264,169.768,482.358,169.768z"/> <path style="fill:#FFFF81;" d="M191.326,99.705c0,50.601-41.02,91.621-91.621,91.621S8.084,150.306,8.084,99.705 S49.105,8.084,99.705,8.084S191.326,49.105,191.326,99.705z"/> <path style="fill:#FFF145;" d="M148.211,99.705c0,26.789-21.716,48.505-48.505,48.505S51.2,126.494,51.2,99.705 S72.916,51.2,99.705,51.2S148.211,72.916,148.211,99.705z"/> <path style="fill:#9FBA41;" d="M169.768,301.014v-23.456c0-35.718,28.955-64.674,64.674-64.674l0,0 c35.718,0,64.674,28.955,64.674,64.674v9.894c30.585,5.134,53.895,31.718,53.895,63.763v88.027 c0,35.718-28.955,64.674-64.674,64.674l0,0c-25.041,0-46.742-14.241-57.487-35.056c-10.931,8.455-24.634,13.499-39.523,13.499l0,0 c-35.718,0-64.674-28.956-64.674-64.674v-55.692C126.653,333.836,144.652,309.894,169.768,301.014z"/> <path style="fill:#606D11;" d="M342.232,462.07v41.846H18.863l0,0c0-92.932,93.859-156.477,180.144-121.964l122.03,48.811 C333.838,435.884,342.232,448.282,342.232,462.07z"/> <path style="fill:#7F932A;" d="M482.358,379.958v123.958H374.568h-32.337h-64.674v-91.621c0-26.789,21.716-48.505,48.505-48.505l0,0 c6.128,0,11.984,1.148,17.382,3.221c6.076-32.506,34.58-57.116,68.849-57.116l0,0C450.99,309.895,482.358,341.263,482.358,379.958z"/> <path style="fill:#CC9600;" d="M493.137,503.916H18.863l0,0c0-18.526,13.685-34.203,32.04-36.706l346.112-47.197 C447.86,413.079,493.137,452.602,493.137,503.916L493.137,503.916z"/> <path style="fill:#DDB900;" d="M385.347,503.916L385.347,503.916H18.863l0,0c0-18.526,13.685-34.203,32.04-36.706l252.294-34.404 c42.227-5.758,80.882,26,82.113,68.599C385.336,502.239,385.347,503.076,385.347,503.916z"/> <path style="fill:#CC9600;" d="M266.779,503.916L266.779,503.916H18.863l0,0c0-18.526,13.685-34.203,32.04-36.706l150.307-20.496 c34.373-4.688,65.269,21.766,65.565,56.456C266.778,503.418,266.779,503.667,266.779,503.916z"/> <path style="fill:#DDB900;" d="M137.432,503.916L137.432,503.916H18.863l0,0c0-18.526,13.685-34.203,32.04-36.706l38.351-5.23 c25.23-3.441,48.023,15.953,48.174,41.416C137.432,503.57,137.432,503.742,137.432,503.916z"/> <path d="M226.358,299.116v-1.078c0-4.465,3.62-8.084,8.084-8.084c4.465,0,8.084,3.62,8.084,8.084v1.078 c0,4.465-3.62,8.084-8.084,8.084C229.977,307.2,226.358,303.58,226.358,299.116z M231.747,246.299v-1.078 c0-4.465-3.62-8.084-8.084-8.084c-4.465,0-8.084,3.62-8.084,8.084v1.078c0,4.465,3.62,8.084,8.084,8.084 C228.128,254.383,231.747,250.764,231.747,246.299z M210.189,272.707v-1.078c0-4.465-3.62-8.084-8.084-8.084 c-4.465,0-8.084,3.62-8.084,8.084v1.078c0,4.465,3.62,8.084,8.084,8.084C206.57,280.792,210.189,277.172,210.189,272.707z M297.777,295.424c14.747,2.475,27.712,10.557,36.506,22.757c2.611,3.622,7.663,4.442,11.286,1.83 c3.623-2.612,4.442-7.664,1.83-11.286c-9.94-13.788-24.036-23.485-40.199-27.787v-3.38c0-40.119-32.639-72.758-72.758-72.758 s-72.758,32.639-72.758,72.758v17.981c-20.497,9.117-35.642,27.104-41.029,49.095c-1.062,4.336,1.592,8.713,5.928,9.775 c0.647,0.158,1.293,0.234,1.931,0.234c3.637,0,6.942-2.473,7.846-6.162c4.549-18.565,18.045-33.46,36.104-39.847 c3.23-1.141,5.389-4.196,5.389-7.622v-23.455c0-31.204,25.385-56.589,56.589-56.589s56.589,25.385,56.589,56.589v9.894 C291.032,291.4,293.884,294.771,297.777,295.424z M428.463,161.684h53.895c16.345,0,29.642,13.297,29.642,29.642 s-13.297,29.642-29.642,29.642h-53.895c-16.345,0-29.642-13.297-29.642-29.642S412.118,161.684,428.463,161.684z M482.358,177.853 h-53.895c-7.43,0-13.474,6.044-13.474,13.474s6.044,13.474,13.474,13.474h53.895c7.43,0,13.474-6.044,13.474-13.474 S489.788,177.853,482.358,177.853z M212.884,59.284h86.232c7.43,0,13.474,6.044,13.474,13.474c0,2.38-0.612,4.644-1.819,6.728 c-1.449,2.501-1.452,5.585-0.008,8.089c1.443,2.504,4.113,4.046,7.004,4.046h110.697c7.43,0,13.474,6.044,13.474,13.474 c0,7.43-6.044,13.474-13.474,13.474H256c-7.43,0-13.474-6.044-13.474-13.474c0-2.38,0.612-4.644,1.818-6.728 c1.449-2.501,1.452-5.585,0.008-8.089c-1.443-2.504-4.113-4.046-7.004-4.046h-13.685c-4.465,0-8.084,3.62-8.084,8.084 s3.62,8.084,8.084,8.084h2.819c-0.083,0.895-0.124,1.794-0.124,2.695c0,16.345,13.297,29.642,29.642,29.642h172.463 c16.345,0,29.642-13.297,29.642-29.642s-13.297-29.642-29.642-29.642h-99.829c0.083-0.895,0.124-1.794,0.124-2.695 c0-16.345-13.297-29.642-29.642-29.642h-86.232c-4.465,0-8.084,3.62-8.084,8.084S208.42,59.284,212.884,59.284z M428.463,333.069 c-4.465,0-8.084,3.62-8.084,8.084v1.078c0,4.465,3.62,8.084,8.084,8.084s8.084-3.62,8.084-8.084v-1.078 C436.547,336.689,432.928,333.069,428.463,333.069z M442.476,363.251v1.078c0,4.465,3.62,8.084,8.084,8.084 c4.465,0,8.084-3.62,8.084-8.084v-1.078c0-4.465-3.62-8.084-8.084-8.084C446.095,355.166,442.476,358.786,442.476,363.251z M512,503.916c0,4.465-3.62,8.084-8.084,8.084H223.663c-4.465,0-8.084-3.62-8.084-8.084s3.62-8.084,8.084-8.084h34.407 c-1.558-9.717-6-18.759-12.873-26.007c-3.072-3.24-2.937-8.357,0.303-11.429c3.24-3.073,8.357-2.936,11.429,0.303 c9.739,10.269,15.803,23.246,17.466,37.134h102.402c-1.854-15.368-9.267-29.303-21.24-39.71c-3.37-2.93-3.727-8.036-0.798-11.405 c2.931-3.37,8.035-3.727,11.405-0.798c15.551,13.518,24.977,31.79,26.896,51.913h91.564c-2.025-19.104-11.177-36.856-25.798-49.62 c-16.666-14.548-38.797-21.18-60.719-18.189l-119.314,16.271c-0.088,0.013-0.178,0.025-0.267,0.037l-226.53,30.89 c-11.513,1.569-20.743,9.893-23.888,20.612h100.33c-1.016-4.286-2.874-8.332-5.509-11.956c-2.627-3.611-1.829-8.666,1.782-11.293 c3.612-2.627,8.667-1.828,11.293,1.782c4.671,6.419,7.69,13.732,8.904,21.467h46.418c4.465,0,8.084,3.62,8.084,8.084 s-3.62,8.084-8.084,8.084H8.084C3.62,512,0,508.38,0,503.916s3.62-8.084,8.084-8.084h2.928 c2.495-43.23,24.911-82.928,61.035-107.384c38.363-25.973,86.948-31.208,129.963-14.002l48.754,19.501 c4.146,1.658,6.161,6.363,4.503,10.508c-1.658,4.146-6.365,6.162-10.508,4.503l-48.754-19.501 c-38.594-15.437-80.471-10.927-114.894,12.379c-23.216,15.718-39.754,37.762-48.061,63.199c5.027-2.975,10.692-5.008,16.762-5.836 l219.662-29.954v-16.951c0-31.204,25.385-56.589,56.589-56.589c3.91,0,7.774,0.399,11.562,1.189 c9.961-32.39,40.072-55.084,74.67-55.084c43.091,0,78.147,35.056,78.147,78.147v80.554c5.762,10.884,9.34,22.882,10.426,35.319 h3.047C508.38,495.832,512,499.451,512,503.916z M474.274,379.958c0-34.176-27.803-61.979-61.979-61.979 c-29.818,0-55.431,21.245-60.902,50.517c-0.441,2.359-1.908,4.401-4.002,5.572s-4.602,1.351-6.842,0.49 c-4.636-1.781-9.509-2.684-14.484-2.684c-22.289,0-40.421,18.132-40.421,40.421v14.747l110.282-15.039 c4.182-0.57,8.374-0.852,12.541-0.852c22.29,0,43.989,8.037,60.994,22.88c1.664,1.453,3.268,2.958,4.814,4.514V379.958z M99.705,199.411c23.499,0,46.318-8.332,64.254-23.463c3.413-2.879,3.845-7.98,0.966-11.392c-2.879-3.414-7.981-3.846-11.391-0.967 c-15.024,12.674-34.14,19.653-53.829,19.653c-46.062,0-83.537-37.475-83.537-83.537c0-15.694,4.374-30.985,12.649-44.218 c2.367-3.786,1.217-8.773-2.569-11.14c-3.786-2.367-8.773-1.216-11.14,2.569C5.225,62.722,0,80.977,0,99.705 C0,154.683,44.727,199.411,99.705,199.411z M45.876,35.822C60.9,23.148,80.016,16.168,99.705,16.168 c46.062,0,83.537,37.475,83.537,83.537c0,15.694-4.374,30.985-12.649,44.218c-2.367,3.786-1.217,8.773,2.569,11.14 c1.332,0.833,2.814,1.231,4.278,1.231c2.695,0,5.329-1.346,6.863-3.8c9.883-15.806,15.108-34.061,15.108-52.79 C199.411,44.727,154.683,0,99.705,0C76.206,0,53.387,8.332,35.451,23.463c-3.413,2.879-3.845,7.98-0.966,11.392 C37.363,38.266,42.464,38.7,45.876,35.822z M99.705,43.116c31.204,0,56.589,25.386,56.589,56.589s-25.385,56.589-56.589,56.589 s-56.589-25.385-56.589-56.589S68.501,43.116,99.705,43.116z M99.705,59.284c-22.289,0-40.421,18.132-40.421,40.421 s18.132,40.421,40.421,40.421s40.421-18.132,40.421-40.421S121.994,59.284,99.705,59.284z M183.242,330.375v1.078 c0,4.465,3.62,8.084,8.084,8.084c4.465,0,8.084-3.62,8.084-8.084v-1.078c0-4.465-3.62-8.084-8.084-8.084 C186.862,322.29,183.242,325.91,183.242,330.375z"/> </g>
</svg>