<svg xmlns="http://www.w3.org/2000/svg" width="1600" height="1600" viewBox="0 0 1600 1600"><rect width="100%" height="100%" fill="#DDDDDD"/><path fill="#999999" d="M378.3 750.52h13.27v80.98h-7.73q-1.79 0-3-.59-1.2-.59-2.32-1.99l-42.28-53.98q.34 3.7.34 6.83v49.73H323.3v-80.98h7.9q.95 0 1.65.09.7.08 1.23.33.54.26 1.04.73.5.48 1.12 1.26l42.45 54.21q-.17-1.96-.28-3.86-.11-1.91-.11-3.53v-49.23Zm54.54 22.63q6.38 0 11.62 2.07 5.24 2.07 8.96 5.88 3.72 3.81 5.74 9.3 2.02 5.48 2.02 12.26 0 6.83-2.02 12.32t-5.74 9.35q-3.72 3.87-8.96 5.94-5.24 2.07-11.62 2.07-6.44 0-11.7-2.07-5.27-2.07-8.99-5.94-3.73-3.86-5.77-9.35-2.04-5.49-2.04-12.32 0-6.78 2.04-12.26 2.04-5.49 5.77-9.3 3.72-3.81 8.99-5.88 5.26-2.07 11.7-2.07Zm0 48.55q7.17 0 10.61-4.82 3.45-4.81 3.45-14.11 0-9.29-3.45-14.17-3.44-4.87-10.61-4.87-7.28 0-10.78 4.9-3.5 4.9-3.5 14.14t3.5 14.09q3.5 4.84 10.78 4.84Zm83.44-71.18v80.98h-15.12v-80.98h15.12Zm29.74 80.98h-13.84v-57.46h8.46q2.69 0 3.53 2.52l.89 4.26q1.52-1.68 3.17-3.08 1.65-1.4 3.53-2.41 1.87-1.01 4.03-1.59 2.15-.59 4.73-.59 5.43 0 8.93 2.94t5.24 7.81q1.34-2.86 3.36-4.9 2.01-2.04 4.42-3.33t5.13-1.91q2.71-.61 5.46-.61 4.76 0 8.45 1.45 3.7 1.46 6.22 4.26 2.52 2.8 3.83 6.83 1.32 4.03 1.32 9.24v36.57h-13.83v-36.57q0-5.49-2.41-8.26-2.41-2.77-7.06-2.77-2.12 0-3.94.73-1.82.73-3.2 2.1-1.37 1.37-2.15 3.44-.79 2.07-.79 4.76v36.57h-13.88v-36.57q0-5.77-2.33-8.4-2.32-2.63-6.8-2.63-3.03 0-5.63 1.48-2.6 1.49-4.84 4.06v42.06Zm110.32-14.84v-9.69q-6 .28-10.08 1.04-4.09.75-6.56 1.93-2.46 1.18-3.52 2.74-1.07 1.57-1.07 3.42 0 3.64 2.16 5.21 2.15 1.57 5.63 1.57 4.25 0 7.36-1.54 3.11-1.54 6.08-4.68Zm-29.24-30.18-2.46-4.43q9.91-9.07 23.86-9.07 5.04 0 9.01 1.65 3.98 1.65 6.72 4.59 2.75 2.94 4.17 7.03 1.43 4.09 1.43 8.96v36.29h-6.27q-1.96 0-3.02-.59-1.07-.59-1.68-2.38l-1.24-4.14q-2.18 1.96-4.25 3.44-2.07 1.49-4.31 2.49-2.24 1.01-4.79 1.54-2.55.54-5.63.54-3.64 0-6.72-.98-3.08-.98-5.32-2.94t-3.47-4.88q-1.23-2.91-1.23-6.77 0-2.19.72-4.34.73-2.16 2.38-4.12 1.66-1.96 4.29-3.69 2.63-1.74 6.47-3.03 3.83-1.29 8.93-2.1 5.09-.81 11.65-.98v-3.36q0-5.77-2.47-8.54-2.46-2.77-7.11-2.77-3.36 0-5.57.78-2.21.79-3.89 1.77-1.68.98-3.06 1.76-1.37.79-3.05.79-1.45 0-2.46-.76t-1.63-1.76Zm76.72 14.89q2.58 0 4.48-.7 1.91-.7 3.17-1.93t1.9-2.97q.65-1.73.65-3.81 0-4.25-2.55-6.74-2.55-2.5-7.65-2.5-5.09 0-7.64 2.5-2.55 2.49-2.55 6.74 0 2.02.65 3.76.64 1.73 1.9 2.99 1.26 1.26 3.19 1.96t4.45.7Zm15.63 32.71q0-1.68-1.01-2.75-1.01-1.06-2.74-1.65-1.74-.59-4.06-.87-2.33-.28-4.93-.42-2.61-.14-5.38-.25-2.77-.11-5.4-.45-2.3 1.29-3.73 3.03-1.42 1.73-1.42 4.03 0 1.51.75 2.83.76 1.31 2.41 2.26 1.65.96 4.28 1.49 2.64.53 6.44.53 3.87 0 6.67-.59t4.62-1.62q1.82-1.04 2.66-2.47.84-1.42.84-3.1ZM716.7 776h16.52v5.16q0 2.46-2.96 3.02l-5.16.95q1.18 2.97 1.18 6.5 0 4.25-1.71 7.7-1.71 3.44-4.73 5.85-3.02 2.41-7.14 3.72-4.12 1.32-8.88 1.32-1.68 0-3.24-.17-1.57-.17-3.08-.45-2.69 1.63-2.69 3.64 0 1.74 1.59 2.55 1.6.81 4.23 1.15 2.63.34 5.99.42 3.36.08 6.89.36 3.53.28 6.89.98t5.99 2.22q2.63 1.51 4.23 4.11 1.6 2.61 1.6 6.69 0 3.81-1.88 7.4-1.88 3.58-5.43 6.38-3.56 2.8-8.74 4.51t-11.79 1.71q-6.49 0-11.31-1.26-4.81-1.26-8.01-3.36-3.19-2.1-4.76-4.85-1.56-2.74-1.56-5.71 0-4.03 2.43-6.75 2.44-2.71 6.69-4.34-2.29-1.17-3.64-3.13-1.34-1.96-1.34-5.16 0-1.28.48-2.66.47-1.37 1.4-2.71.92-1.35 2.32-2.55 1.4-1.2 3.3-2.16-4.36-2.35-6.86-6.27-2.49-3.92-2.49-9.18 0-4.26 1.71-7.7 1.71-3.45 4.76-5.88 3.05-2.44 7.22-3.73 4.18-1.28 9.1-1.28 3.7 0 6.95.75 3.25.76 5.93 2.21Zm36.18 20.16h26.1q0-2.68-.76-5.06-.76-2.38-2.27-4.18-1.51-1.79-3.83-2.82-2.33-1.04-5.41-1.04-5.99 0-9.43 3.42-3.45 3.41-4.4 9.68Zm35.28 8.35H752.6q.34 4.42 1.57 7.64 1.23 3.22 3.25 5.32 2.01 2.1 4.78 3.14 2.78 1.03 6.14 1.03t5.79-.78q2.44-.78 4.26-1.74 1.82-.95 3.19-1.73 1.37-.79 2.66-.79 1.74 0 2.58 1.29l3.97 5.04q-2.29 2.69-5.15 4.51-2.86 1.82-5.96 2.91-3.11 1.09-6.33 1.54-3.22.45-6.25.45-5.99 0-11.14-1.99t-8.96-5.88q-3.81-3.89-5.99-9.63-2.19-5.74-2.19-13.3 0-5.88 1.91-11.06 1.9-5.18 5.46-9.02 3.55-3.83 8.68-6.07 5.12-2.24 11.56-2.24 5.43 0 10.03 1.73 4.59 1.74 7.89 5.07 3.31 3.33 5.18 8.18 1.88 4.84 1.88 11.06 0 3.13-.67 4.23-.68 1.09-2.58 1.09Zm60.03-3.59h25.76l-9.85-26.93q-.73-1.79-1.52-4.26-.78-2.46-1.56-5.32-.73 2.86-1.52 5.35-.78 2.49-1.51 4.34l-9.8 26.82Zm20.55-50.4 31.81 80.98H888.9q-1.96 0-3.19-.98t-1.85-2.44l-6.04-16.52h-33.55l-6.05 16.52q-.44 1.29-1.73 2.36-1.29 1.06-3.19 1.06h-11.76l31.86-80.98h15.34Zm78.91 23.52h10.92l-22.79 57.46h-12.55l-22.79-57.46h11.42q1.57 0 2.61.73 1.03.73 1.37 1.85l11.09 30.69q.89 2.69 1.57 5.26.67 2.58 1.17 5.15.56-2.57 1.23-5.15.68-2.57 1.63-5.26l11.31-30.69q.39-1.12 1.4-1.85 1.01-.73 2.41-.73Zm48.61 42.62v-9.69q-6 .28-10.08 1.04-4.09.75-6.56 1.93-2.46 1.18-3.52 2.74-1.07 1.57-1.07 3.42 0 3.64 2.16 5.21 2.15 1.57 5.63 1.57 4.25 0 7.36-1.54 3.11-1.54 6.08-4.68Zm-29.24-30.18-2.46-4.43q9.91-9.07 23.86-9.07 5.04 0 9.01 1.65 3.98 1.65 6.72 4.59 2.75 2.94 4.17 7.03 1.43 4.09 1.43 8.96v36.29h-6.27q-1.96 0-3.02-.59-1.07-.59-1.68-2.38l-1.24-4.14q-2.18 1.96-4.25 3.44-2.07 1.49-4.31 2.49-2.24 1.01-4.79 1.54-2.55.54-5.63.54-3.64 0-6.72-.98-3.08-.98-5.32-2.94t-3.47-4.88q-1.23-2.91-1.23-6.77 0-2.19.72-4.34.73-2.16 2.38-4.12 1.66-1.96 4.29-3.69 2.63-1.74 6.47-3.03 3.83-1.29 8.93-2.1 5.09-.81 11.65-.98v-3.36q0-5.77-2.47-8.54-2.46-2.77-7.11-2.77-3.36 0-5.57.78-2.21.79-3.89 1.77-1.68.98-3.06 1.76-1.37.79-3.05.79-1.45 0-2.46-.76t-1.63-1.76Zm56.17-12.44h13.89v57.46h-13.89v-57.46Zm15.79-16.74q0 1.79-.72 3.36-.73 1.57-1.94 2.74-1.2 1.18-2.82 1.88-1.63.7-3.48.7-1.79 0-3.38-.7-1.6-.7-2.78-1.88-1.17-1.17-1.87-2.74-.7-1.57-.7-3.36 0-1.85.7-3.47.7-1.63 1.87-2.8 1.18-1.18 2.78-1.88 1.59-.7 3.38-.7 1.85 0 3.48.7 1.62.7 2.82 1.88 1.21 1.17 1.94 2.8.72 1.62.72 3.47Zm12.38-9.02h13.83v83.22h-13.83v-83.22Zm58.02 68.38v-9.69q-6 .28-10.08 1.04-4.09.75-6.56 1.93-2.46 1.18-3.52 2.74-1.07 1.57-1.07 3.42 0 3.64 2.16 5.21 2.15 1.57 5.63 1.57 4.25 0 7.36-1.54 3.11-1.54 6.08-4.68Zm-29.24-30.18-2.46-4.43q9.91-9.07 23.86-9.07 5.04 0 9.01 1.65 3.98 1.65 6.72 4.59 2.75 2.94 4.17 7.03 1.43 4.09 1.43 8.96v36.29h-6.27q-1.96 0-3.02-.59-1.07-.59-1.68-2.38l-1.24-4.14q-2.18 1.96-4.25 3.44-2.07 1.49-4.31 2.49-2.24 1.01-4.79 1.54-2.55.54-5.63.54-3.64 0-6.72-.98-3.08-.98-5.32-2.94t-3.47-4.88q-1.23-2.91-1.23-6.77 0-2.19.72-4.34.73-2.16 2.38-4.12 1.66-1.96 4.29-3.69 2.63-1.74 6.47-3.03 3.83-1.29 8.93-2.1 5.09-.81 11.65-.98v-3.36q0-5.77-2.47-8.54-2.46-2.77-7.11-2.77-3.36 0-5.57.78-2.21.79-3.89 1.77-1.68.98-3.06 1.76-1.37.79-3.05.79-1.45 0-2.46-.76t-1.63-1.76Zm69.56 4.36v25.76q2.35 2.86 5.12 4.04 2.77 1.17 5.85 1.17 3.19 0 5.74-1.15 2.55-1.14 4.34-3.58 1.79-2.44 2.75-6.22.95-3.78.95-9.04 0-9.46-3.14-13.69-3.13-4.23-9.01-4.23-3.98 0-6.95 1.82t-5.65 5.12Zm0-42.56v32.82q3.47-3.64 7.7-5.8 4.22-2.15 9.66-2.15 4.98 0 8.98 1.96 4.01 1.96 6.84 5.63 2.82 3.66 4.34 8.87 1.51 5.21 1.51 11.71 0 7-1.74 12.71-1.73 5.71-4.95 9.77t-7.76 6.3q-4.54 2.24-10.08 2.24-2.69 0-4.87-.53-2.19-.53-4.03-1.49-1.85-.95-3.39-2.32-1.54-1.37-2.94-3.05l-.62 3.86q-.33 1.46-1.15 2.07-.81.62-2.21.62h-9.13v-83.22h13.84Zm49.89 0h13.83v83.22h-13.83v-83.22Zm38.59 47.88h26.09q0-2.68-.75-5.06-.76-2.38-2.27-4.18-1.51-1.79-3.84-2.82-2.32-1.04-5.4-1.04-5.99 0-9.44 3.42-3.44 3.41-4.39 9.68Zm35.28 8.35h-35.56q.33 4.42 1.56 7.64 1.24 3.22 3.25 5.32 2.02 2.1 4.79 3.14 2.77 1.03 6.13 1.03t5.8-.78q2.43-.78 4.25-1.74 1.82-.95 3.2-1.73 1.37-.79 2.66-.79 1.73 0 2.57 1.29l3.98 5.04q-2.3 2.69-5.15 4.51-2.86 1.82-5.97 2.91t-6.33 1.54q-3.22.45-6.24.45-5.99 0-11.14-1.99-5.16-1.99-8.96-5.88-3.81-3.89-6-9.63-2.18-5.74-2.18-13.3 0-5.88 1.9-11.06 1.91-5.18 5.46-9.02 3.56-3.83 8.68-6.07 5.13-2.24 11.57-2.24 5.43 0 10.02 1.73 4.59 1.74 7.9 5.07 3.3 3.33 5.18 8.18 1.87 4.84 1.87 11.06 0 3.13-.67 4.23-.67 1.09-2.57 1.09Z"/></svg>