<?xml version="1.0" encoding="iso-8859-1"?>
<!-- Uploaded to: SVG Repo, www.svgrepo.com, Generator: SVG Repo Mixer Tools -->
<svg fill="#000000" height="800px" width="800px" version="1.1" id="Layer_1" xmlns="http://www.w3.org/2000/svg" xmlns:xlink="http://www.w3.org/1999/xlink" 
	 viewBox="0 0 512 512" xml:space="preserve">
<g>
	<g>
		<g>
			<path d="M253.75,128.106c-23.675,0-42.936,19.261-42.936,42.936c0,23.676,19.261,42.937,42.936,42.937
				c23.676,0,42.937-19.261,42.937-42.937C296.687,147.367,277.426,128.106,253.75,128.106z M253.75,197.81
				c-14.76,0-26.767-12.009-26.767-26.768c0-14.76,12.008-26.767,26.767-26.767c14.76,0,26.768,12.007,26.768,26.767
				C280.519,185.801,268.51,197.81,253.75,197.81z"/>
			<path d="M297.046,378.572V346.76h0.621c38.468,0,69.762-31.294,69.762-69.762V69.761C367.43,31.295,336.135,0,297.667,0h-81.894
				c-38.468,0-69.762,31.295-69.762,69.761V277c0,36.676,28.455,66.811,64.445,69.539v32.035c0,11.165,8.758,20.299,19.761,20.955
				v58.63h-58.726c-14.844,0-26.92,12.077-26.92,26.922S156.647,512,171.492,512h26.209c4.466,0,8.084-3.618,8.084-8.084
				c0-4.466-3.619-8.084-8.084-8.084h-26.209c-5.93,0-10.752-4.824-10.752-10.753s4.824-10.753,10.752-10.753h66.81h30.9h65.7
				c5.93,0,10.754,4.824,10.754,10.753s-4.825,10.753-10.754,10.753h-112.41c-4.466,0-8.084,3.619-8.084,8.084
				c0,4.466,3.618,8.084,8.084,8.084h112.41c14.846,0,26.923-12.077,26.923-26.922s-12.077-26.922-26.923-26.922h-57.617v-58.63
				C288.288,398.871,297.046,389.737,297.046,378.572z M162.179,244.658h30.681c4.466,0,8.084-3.618,8.084-8.084
				c0-4.466-3.619-8.084-8.084-8.084h-30.681v-16.597h30.681c4.466,0,8.084-3.619,8.084-8.084s-3.619-8.084-8.084-8.084h-30.681
				v-16.599h30.681c4.466,0,8.084-3.618,8.084-8.084c0-4.466-3.619-8.084-8.084-8.084h-30.681v-16.599h30.681
				c4.466,0,8.084-3.618,8.084-8.084c0-4.466-3.619-8.084-8.084-8.084h-30.681v-16.599h30.681c4.466,0,8.084-3.619,8.084-8.084
				s-3.619-8.084-8.084-8.084h-30.681V77.846h109.357c4.466,0,8.084-3.619,8.084-8.084s-3.619-8.084-8.084-8.084H162.789
				c3.909-25.729,26.18-45.509,52.984-45.509h81.895c26.804,0,49.074,19.779,52.984,45.509h-54.324
				c-4.466,0-8.084,3.619-8.084,8.084c0,4.466,3.618,8.084,8.084,8.084h54.934v19.577h-30.681c-4.466,0-8.084,3.618-8.084,8.084
				c0,4.466,3.618,8.084,8.084,8.084h30.681v16.599h-30.681c-4.466,0-8.084,3.619-8.084,8.084s3.618,8.084,8.084,8.084h30.681
				v16.598h-30.681c-4.466,0-8.084,3.619-8.084,8.084c0,4.466,3.618,8.084,8.084,8.084h30.681v16.599h-30.681
				c-4.466,0-8.084,3.618-8.084,8.084c0,4.466,3.618,8.084,8.084,8.084h30.681v16.599h-30.681c-4.466,0-8.084,3.618-8.084,8.084
				c0,4.466,3.618,8.084,8.084,8.084h30.681v24.255H162.179V244.658z M215.773,330.592c-26.804,0-49.074-19.78-52.984-45.51h187.862
				c-3.91,25.73-26.18,45.51-52.984,45.51h-8.705H218.54H215.773z M261.117,458.158h-14.732v-58.566h14.732V458.158z
				 M276.027,383.423h-6.826h-30.9h-6.826c-2.675,0-4.851-2.176-4.851-4.851v-31.812h54.254v31.812
				C280.878,381.247,278.702,383.423,276.027,383.423z"/>
		</g>
	</g>
</g>
</svg>