<!DOCTYPE svg PUBLIC "-//W3C//DTD SVG 1.1//EN" "http://www.w3.org/Graphics/SVG/1.1/DTD/svg11.dtd">
<!-- Uploaded to: SVG Repo, www.svgrepo.com, Transformed by: SVG Repo Mixer Tools -->
<svg fill="#000000" height="256px" width="256px" version="1.1" id="Capa_1" xmlns="http://www.w3.org/2000/svg" xmlns:xlink="http://www.w3.org/1999/xlink" viewBox="0 0 256.842 256.842" xml:space="preserve">
<g id="SVGRepo_bgCarrier" stroke-width="0"/>
<g id="SVGRepo_tracerCarrier" stroke-linecap="round" stroke-linejoin="round"/>
<g id="SVGRepo_iconCarrier"> <g> <path d="M228.144,94.344c1.413-1.288,1.487-3.932-0.884-4.377c-40.181-7.537-80.122-16.256-120.299-23.786 c-1.253-0.234-2.063,0.642-2.233,1.601c-0.178,0.25-0.314,0.558-0.387,0.937c-7.463,39.037-18.568,79.556-20.892,119.267 c-0.11,0.034-0.246,0.035-0.355,0.07c-0.753,0.247-1.294,1.038-1.048,1.844c0.093,0.302,0.186,0.605,0.279,0.909 c0.156,0.512,0.631,0.903,1.178,0.898l0.78-0.009c0.999-0.01,1.355-1.35,0.505-1.865c14.707,8.913,42.54,9,59.045,11.801 c19.661,3.335,39.321,6.681,58.999,9.915c2.242,0.369,3.628-1.721,3.383-3.396C214.699,170.506,219.894,132.09,228.144,94.344z M131.644,194.179c-12.012-1.943-32.568-9.113-45.72-6.678c11.832-37.358,16.039-78.442,22.993-116.99 c37.427,9.886,75.545,17.219,113.663,23.914c-7.881,36.691-16.499,74.158-19.73,111.599 C179.13,201.985,155.397,198.019,131.644,194.179z"/> <path d="M249.979,70.804c-0.266-0.537-0.771-0.971-1.57-1.149c-21.739-4.864-43.782-9.514-65.949-13.675 c-2.255-17.429-5.681-34.393-10.721-51.226c2.077-1.174,1.741-4.958-1.102-4.745C116.219,4.095,60.822,9.682,7.428,21.219 c-1.915,0.413-1.528,3.739,0.47,3.478C61.34,17.719,114.338,9.81,168.076,5.338c3.799,16.403,6.977,32.992,9.198,49.683 c-5.044-0.927-10.101-1.785-15.155-2.653c-0.911-8.239-1.729-16.962-3.904-25.002c0.655-1.602-0.691-4.078-3.036-3.71 C113.591,30.173,71.857,34.95,30.104,40.223c-0.656,0.083-1.011,0.518-1.221,1.011c-0.594,0.318-1.015,0.902-0.923,1.817 c3.95,39.438,7.628,81.153,19.204,119.154c-0.132,0.044-0.263,0.074-0.391,0.181c-0.687,0.58-0.861,1.27-0.546,2.114 c0.279,0.747,0.785,1.084,1.553,1.182c2.871,0.363,6.168-0.468,9.039-0.796c2.109-0.241,4.29-0.286,6.305-0.891 c-1.769,12.538-3.409,25.083-4.955,37.601c-8.68,1.135-17.166,3.359-25.973,4.163C30.084,145.806,20.57,85.218,11.041,26.032 c-0.428-2.655-4.462-1.527-4.039,1.114c9.518,59.405,14.294,118.992,21.437,178.639c0.132,1.1,1.004,1.67,1.871,1.751 c0.061,0.699,0.524,1.369,1.48,1.446c8.145,0.659,17.767,0.234,25.783-2.628c-0.91,7.463-1.796,14.916-2.663,22.349 c-0.237,2.042,1.614,2.798,3.18,2.334c52.289,10.416,105.9,17.466,158.591,25.765c1.25,0.197,2.246-0.374,2.825-1.205 c0.234-0.244,0.435-0.541,0.545-0.953c15.93-59.294,25.322-120.924,30.602-182.057C250.724,71.767,250.434,71.184,249.979,70.804z M55.623,160.872c-1.866,0.353-3.738,0.725-5.602,1.115C45.34,122.191,36.466,83.062,32.368,43.079 c40.991-2.294,81.881-7.718,122.41-14.193c0.053,7.497,1.21,15.199,2.313,22.603c-22.854-3.826-45.773-6.992-68.587-9.06 c-0.86-0.078-1.365,0.485-1.647,1.161c-0.205,0.203-0.443,0.354-0.539,0.718c-10.036,37.725-17.01,76.59-22.604,115.559 C61.01,159.555,58.297,160.367,55.623,160.872z M216.298,251.222c-50.74-10.955-104.173-20.378-156.109-23.067 c7.692-61.02,19.697-120.916,29.326-181.57C141.352,56.64,193.718,64.52,245.66,74.211 C239.15,134.071,228.579,192.345,216.298,251.222z"/> <path d="M120.255,122.379c-7.525-1.824-12.787,5.401-11.208,12.27c0.412,1.793,3.181,1.379,3.176-0.429 c-0.008-3.361,1.823-7.511,5.708-7.585c3.743-0.071,5.257,3.733,3.076,6.521c-1.315,1.68,0.423,4.821,2.538,3.289 C129.037,132.466,126.512,123.894,120.255,122.379z"/> <path d="M198.979,137.455c-5.954-2.454-12.443,2.924-11.727,9.145c0.242,2.11,3.236,2.205,3.357,0 c0.191-3.502,4.48-6.901,7.61-4.22c2.501,2.142,0.943,4.501,1.683,7.065c0.344,1.195,1.669,1.675,2.737,1.113 C208.015,147.735,202.927,139.081,198.979,137.455z"/> <path d="M170.968,143.581c-1.13-0.99-2.791-0.585-3.269,0.863c-0.557,1.686-0.098,3.333-1.057,4.941 c-0.924,1.55-2.663,2.809-4.533,2.53c-3.475-0.521-5.096-5.278-3.738-8.179c0.012-0.026-0.004-0.051,0.006-0.077 c0.067-0.239,0.181-0.46,0.231-0.705c0.357-1.747-1.74-2.512-2.758-1.163c-2.283,3.024-4.645,6.51-8.962,6.123 c-4.414-0.395-5.663-4.595-3.463-7.983c0.635-0.979-0.587-2.003-1.518-1.517c-5.624,2.944-2.892,10.94,2.001,12.944 c3.533,1.447,7.373,0.521,10.285-1.682c0.688,3.384,3.13,6.416,6.863,7.17c3.466,0.699,6.946-0.99,9.109-3.657 C172.162,150.727,173.741,146.013,170.968,143.581z"/> </g> </g>
</svg>